<?xml version="1.0" encoding="UTF-8" standalone="no" ?>
<!DOCTYPE svg PUBLIC "-//W3C//DTD SVG 1.1//EN" "http://www.w3.org/Graphics/SVG/1.1/DTD/svg11.dtd">
<svg xmlns="http://www.w3.org/2000/svg" xmlns:xlink="http://www.w3.org/1999/xlink" version="1.1" width="16" height="16" viewBox="0 0 16 16" xml:space="preserve">
<desc>Created with Fabric.js 4.6.0</desc>
<defs>
</defs>
<g transform="matrix(1 0 0 1 4.01 8)" id="xs82M33tCmb-QR8yOF4e6"  >
<path style="stroke: rgb(237,98,214); stroke-width: 0; stroke-dasharray: none; stroke-linecap: butt; stroke-dashoffset: 0; stroke-linejoin: miter; stroke-miterlimit: 4; fill: rgb(200,200,200); fill-rule: nonzero; opacity: 1;" vector-effect="non-scaling-stroke"  transform=" translate(-1, -1)" d="M 1 0 C 1.552 0 2 0.448 2 1 C 2 1.552 1.552 2 1 2 C 0.44799999999999995 2 0 1.552 0 1 C 0 0.44799999999999995 0.448 0 1 0 z" stroke-linecap="round" />
</g>
<g transform="matrix(1 0 0 1 11.99 8)" id="eWnlY0cmEkYb-CRtBir2q"  >
<path style="stroke: rgb(237,98,214); stroke-width: 0; stroke-dasharray: none; stroke-linecap: butt; stroke-dashoffset: 0; stroke-linejoin: miter; stroke-miterlimit: 4; fill: rgb(200,200,200); fill-rule: nonzero; opacity: 1;" vector-effect="non-scaling-stroke"  transform=" translate(-1, -1)" d="M 1 0 C 1.552 0 2 0.448 2 1 C 2 1.552 1.552 2 1 2 C 0.44799999999999995 2 0 1.552 0 1 C 0 0.44799999999999995 0.448 0 1 0 z" stroke-linecap="round" />
</g>
<g transform="matrix(1 0 0 1 8 8)" id="Xaf_uMrzmAYV0gl3qOML6"  >
<path style="stroke: rgb(237,98,214); stroke-width: 0; stroke-dasharray: none; stroke-linecap: butt; stroke-dashoffset: 0; stroke-linejoin: miter; stroke-miterlimit: 4; fill: rgb(200,200,200); fill-rule: nonzero; opacity: 1;" vector-effect="non-scaling-stroke"  transform=" translate(-1, -1)" d="M 1 0 C 1.552 0 2 0.448 2 1 C 2 1.552 1.552 2 1 2 C 0.44799999999999995 2 0 1.552 0 1 C 0 0.44799999999999995 0.448 0 1 0 z" stroke-linecap="round" />
</g>
</svg>